<?xml version="1.0" encoding="UTF-8"?>
<!DOCTYPE svg PUBLIC "-//W3C//DTD SVG 1.1//EN" "http://www.w3.org/Graphics/SVG/1.1/DTD/svg11.dtd">
<!-- Creator: CorelDRAW -->
<svg xmlns="http://www.w3.org/2000/svg" xml:space="preserve" width="2048px" height="2048px" style="shape-rendering:geometricPrecision; text-rendering:geometricPrecision; image-rendering:optimizeQuality; fill-rule:evenodd; clip-rule:evenodd"
viewBox="0 0 2048 2048"
 xmlns:xlink="http://www.w3.org/1999/xlink">
 <defs>
  <style type="text/css">
   <![CDATA[
    .fil0 {fill:#FF5722}
    .fil1 {fill:#FFFFFE;fill-rule:nonzero}
   ]]>
  </style>
 </defs>
 <g id="Layer_x0020_1">
  <metadata id="CorelCorpID_0Corel-Layer"/>
  <rect class="fil0" width="2048" height="2048" rx="256.001" ry="256.001"/>
  <path class="fil1" d="M735.384 515.377c5.00906,-2.14488 10.6028,-3.30473 16.3606,-3.26339 5.82166,-0.0401575 11.2973,1.13504 16.2189,3.24922 4.74922,2.03977 9.16536,5.07166 12.9732,8.77324l0.0011811 -0.0011811c1.52953,1.47874 2.91142,2.95512 4.11496,4.48937 1.12087,1.42441 2.26654,3.12992 3.46654,5.22993l0.0354331 -0.0212599 56.954 96.2824 0.125197 0.249213 4.90512 8.45788 0.750001 1.37599c3.89174,7.53662 6.96378,15.5953 9.06969,24.0638 1.98662,7.98071 3.07677,16.4894 3.13937,25.4339l0 0.125197c-0.0425197,14.9669 -3.10984,29.2299 -8.60198,42.1843 -5.75079,13.5626 -14.0634,25.6819 -24.2705,35.6835l-1.24961 1.24961 -0.0791339 0.0696851 -0.0212599 -0.0236221c-10.0878,9.58229 -21.9154,17.289 -34.9181,22.5874 -12.9036,5.25827 -27.2044,8.18386 -42.3496,8.25001l-0.125197 0c-15.0862,0.0177165 -29.413,-2.86772 -42.4288,-8.11182 -13.6925,-5.51575 -25.9996,-13.6016 -36.2894,-23.6398 -10.3595,-10.1209 -18.7264,-22.2756 -24.4784,-35.8488 -5.51103,-13.0016 -8.55119,-27.2788 -8.56182,-42.2705 -0.0248032,-8.94213 1.0311,-17.5028 3.0378,-25.6264 2.14725,-8.69174 5.25,-16.8236 9.16418,-24.3402l0.750001 -1.12559 4.70552 -8.1756 0.125197 -0.37441 56.8182 -96.3804 0.0555119 0.0330709c1.10787,-1.93819 2.32205,-3.69331 3.56929,-5.27126 1.11969,-1.41732 2.14252,-2.58898 3.0626,-3.55748l-0.00708662 -0.00708662c3.90827,-4.16929 8.72717,-7.50945 13.9784,-9.74883z"/>
  <path class="fil1" d="M1343.38 515.377c5.01142,-2.14488 10.6051,-3.30473 16.3606,-3.26339 5.82402,-0.0401575 11.2984,1.13504 16.2189,3.24922 4.75158,2.04095 9.16654,5.07284 12.9732,8.77324l0.0011811 -0.0011811c1.52953,1.47992 2.91142,2.95512 4.11496,4.48937 1.25079,1.59095 2.46732,3.38268 3.66142,5.47678l56.7945 96.0142 0.125197 0.249213 4.90512 8.45788 0.750001 1.37599c3.89174,7.53662 6.96378,15.5953 9.06969,24.0638 1.98662,7.98071 3.07677,16.4894 3.13937,25.4339l0 0.125197c-0.0425197,14.9669 -3.10984,29.2299 -8.60198,42.1843 -5.75079,13.5626 -14.0634,25.6819 -24.2705,35.6835l-1.24961 1.24961 -0.0791339 0.0696851 -0.0212599 -0.0236221c-10.0878,9.58229 -21.9142,17.2878 -34.9181,22.5874 -12.9036,5.25827 -27.2032,8.18386 -42.3496,8.25001l-0.125197 0c-15.0851,0.0177165 -29.413,-2.86772 -42.4288,-8.11182 -13.6925,-5.51575 -25.9996,-13.6016 -36.2894,-23.6398 -10.3595,-10.1209 -18.7264,-22.2756 -24.4784,-35.8488 -5.51103,-13.0016 -8.55119,-27.2788 -8.56182,-42.2705 -0.0248032,-8.94213 1.0311,-17.5028 3.0378,-25.6264 2.14725,-8.69174 5.25,-16.8236 9.16418,-24.3402l0.750001 -1.12559 4.70552 -8.1756 0.125197 -0.37441 56.8182 -96.3804 0.0153543 0.00826772c1.06181,-1.82126 2.2937,-3.58229 3.60945,-5.24646 1.86142,-2.35748 3.09803,-3.75 3.93071,-4.56496l0.0472441 0.0484252c3.73465,-3.72874 8.21221,-6.72993 13.0559,-8.79686z"/>
  <path class="fil1" d="M397.407 675.683c5.63859,-2.35748 11.9067,-3.63071 18.3414,-3.56693 6.55985,-0.0661418 12.7169,1.22362 18.241,3.54567l0 0.125197c5.63741,2.37166 10.7374,5.76851 14.9976,9.8256l0.00236221 -0.00236221c1.65,1.56614 3.25748,3.26811 4.8626,5.26772 1.49528,1.86614 2.91496,3.90237 4.26733,6.21142l0.0425197 -0.0259843 91.3737 151.336 0.125197 0.250394 7.86851 13.2945 0.750001 1.3748c5.68229,10.7776 10.1185,22.1103 13.0925,33.8185 2.85118,11.2276 4.41496,23.2465 4.50591,35.941l0 0.125197c-0.0614174,21.0508 -4.48583,41.1614 -12.4134,59.478 -8.2441,19.0488 -20.1744,36.0815 -34.8319,50.1544l-0.283465 0.257481c-14.6303,14.0102 -32.139,25.3181 -51.6355,33.1016 -18.6543,7.44686 -39.0957,11.589 -60.5162,11.6799l-0.125197 0c-21.5941,0.0248032 -42.0709,-4.0063 -60.6437,-11.3374 -19.5815,-7.72914 -37.2,-19.0748 -51.9508,-33.1736l-0.125197 -0.124016c-14.7744,-14.1425 -26.7248,-31.167 -34.9677,-50.2181 -7.94883,-18.3744 -12.3331,-38.5075 -12.3473,-59.615 -0.0377953,-12.6201 1.47284,-24.6567 4.3441,-36.0425 3.05433,-12.1134 7.5378,-23.5795 13.2413,-34.3099l0.750001 -1.12441 7.54961 -12.8504 0.125197 -0.250394 91.1587 -151.491 0.00590552 0.00354331c1.37835,-2.44016 2.83583,-4.54607 4.29567,-6.35788 1.63465,-2.02795 3.29646,-3.78307 4.84252,-5.26536l0.0531496 0.0555119c4.41615,-4.37126 9.56339,-7.813 15.0036,-10.0913z"/>
  <path class="fil1" d="M1005.45 675.683c5.63859,-2.35748 11.9091,-3.63071 18.3425,-3.56693 6.56103,-0.0661418 12.7169,1.2248 18.2398,3.54567l0 0.125197c5.63859,2.37284 10.7386,5.76969 14.9976,9.8256l0.00236221 -0.00236221c1.65354,1.56614 3.25748,3.26811 4.8626,5.26772 1.35709,1.69016 2.74843,3.71811 4.21536,6.24213l0.0944883 -0.056693 91.3737 151.336 0.125197 0.250394 7.86851 13.2945 0.750001 1.3748c5.68347,10.7776 10.1185,22.1103 13.0925,33.8185 2.85118,11.2276 4.41496,23.2465 4.50591,35.941l0 0.125197c-0.0614174,21.0508 -4.48583,41.1614 -12.4134,59.478 -8.2441,19.0488 -20.1744,36.0815 -34.8319,50.1544l-0.283465 0.257481c-14.6303,14.0102 -32.139,25.3181 -51.6355,33.1016 -18.6543,7.44686 -39.0957,11.589 -60.5162,11.6799l-0.125197 0c-21.5941,0.0248032 -42.0709,-4.0063 -60.6437,-11.3374 -19.5815,-7.72914 -37.2,-19.0748 -51.9508,-33.1736l-0.125197 -0.124016c-14.7744,-14.1425 -26.7248,-31.167 -34.9677,-50.2181 -7.94883,-18.3744 -12.3331,-38.5075 -12.3473,-59.615 -0.0377953,-12.6201 1.47284,-24.6567 4.3441,-36.0425 3.05433,-12.1134 7.5378,-23.5795 13.2413,-34.3099l0.750001 -1.12441 7.54961 -12.8504 0.125197 -0.250394 91.1587 -151.491 0.00590552 0.00354331c1.37835,-2.44016 2.83583,-4.54607 4.29567,-6.35788 1.63465,-2.02795 3.29646,-3.78307 4.84252,-5.26536l0.0531496 0.0555119c4.41615,-4.37126 9.56339,-7.813 15.0036,-10.0913z"/>
  <path class="fil1" d="M1613.25 675.683c5.64095,-2.35866 11.9091,-3.63071 18.3425,-3.56693 6.56103,-0.0661418 12.7169,1.2248 18.2398,3.54567l0 0.125197c5.63859,2.37284 10.7386,5.76969 14.9976,9.8256l0.00236221 -0.00236221c1.65354,1.56614 3.25748,3.26811 4.8626,5.26772 1.35709,1.69016 2.74843,3.71811 4.21536,6.24213l0.0944883 -0.056693 91.3737 151.336 0.125197 0.250394 7.86851 13.2945 0.750001 1.3748c5.68347,10.7776 10.1185,22.1103 13.0925,33.8185 2.85118,11.2276 4.41496,23.2465 4.50591,35.941l0 0.125197c-0.0614174,21.0508 -4.48583,41.1614 -12.4134,59.478 -8.2441,19.0488 -20.1744,36.0815 -34.8319,50.1544l-0.283465 0.257481c-14.6303,14.0102 -32.139,25.3181 -51.6355,33.1016 -18.6543,7.44686 -39.0957,11.589 -60.5162,11.6799l-0.125197 0c-21.5941,0.0248032 -42.0709,-4.0063 -60.6437,-11.3374 -19.5815,-7.72914 -37.2,-19.0748 -51.9508,-33.1736l-0.125197 -0.124016c-14.7744,-14.1425 -26.7248,-31.167 -34.9677,-50.2181 -7.94883,-18.3744 -12.3331,-38.5075 -12.3473,-59.615 -0.0377953,-12.6201 1.47284,-24.6567 4.3441,-36.0425 3.05433,-12.1134 7.5378,-23.5795 13.2413,-34.3099l0.750001 -1.12441 7.54961 -12.8504 0.125197 -0.250394 91.1587 -151.491 0.00590552 0.00354331c1.37835,-2.44252 2.83701,-4.54843 4.29685,-6.35788 1.62874,-2.02441 3.29173,-3.77953 4.84134,-5.26536l0.0531496 0.0555119c4.41615,-4.37244 9.56457,-7.81418 15.0036,-10.0913z"/>
  <path class="fil1" d="M717.451 897.806c5.63859,-2.35748 11.9067,-3.63071 18.3414,-3.56693 6.55985,-0.0661418 12.7169,1.22362 18.241,3.54567l0 0.125197c5.63741,2.37166 10.7374,5.76851 14.9976,9.8256l0.00236221 -0.00236221c1.65,1.56614 3.25748,3.26811 4.8626,5.26772 1.49528,1.86614 2.91496,3.90237 4.26733,6.21142l0.0425197 -0.0259843 91.3737 151.336 0.125197 0.250394 7.86851 13.2945 0.750001 1.3748c5.68347,10.7776 10.1185,22.1103 13.0925,33.8185 2.85118,11.2276 4.41496,23.2465 4.50591,35.941l0 0.125197c-0.0614174,21.0508 -4.48583,41.1614 -12.4134,59.478 -8.2441,19.0488 -20.1744,36.0815 -34.8319,50.1544l-0.283465 0.257481c-14.6303,14.0102 -32.139,25.3181 -51.6355,33.1016 -18.6543,7.44686 -39.0957,11.589 -60.5162,11.6799l-0.125197 0c-21.5941,0.0248032 -42.0709,-4.0063 -60.6437,-11.3374 -19.5815,-7.72914 -37.2,-19.0748 -51.9508,-33.1736l-0.125197 -0.124016c-14.7744,-14.1425 -26.7248,-31.167 -34.9677,-50.2181 -7.94883,-18.3744 -12.3331,-38.5063 -12.3473,-59.615 -0.0377953,-12.6201 1.47284,-24.6567 4.3441,-36.0425 3.05433,-12.1134 7.5378,-23.5795 13.2413,-34.3099l0.750001 -1.12441 7.54961 -12.8504 0.125197 -0.250394 91.1587 -151.491 0.00590552 0.00354331c1.37835,-2.44016 2.83583,-4.54607 4.29567,-6.35788 1.63465,-2.02795 3.29646,-3.78307 4.84252,-5.26536l0.0531496 0.0555119c4.41615,-4.37126 9.56339,-7.813 15.0036,-10.0913z"/>
  <path class="fil1" d="M1325.41 897.806c5.64095,-2.35866 11.9091,-3.63071 18.3425,-3.56693 6.56103,-0.0661418 12.7169,1.2248 18.2398,3.54567l0 0.125197c5.63859,2.37284 10.7386,5.76969 14.9976,9.8256l0.00236221 -0.00236221c1.65354,1.56614 3.25748,3.26811 4.8626,5.26772 1.35709,1.69016 2.74843,3.71811 4.21536,6.24213l0.0944883 -0.056693 91.3737 151.336 0.125197 0.250394 7.86851 13.2945 0.750001 1.3748c5.68347,10.7776 10.1185,22.1103 13.0925,33.8185 2.85118,11.2276 4.41496,23.2465 4.50591,35.941l0 0.125197c-0.0614174,21.0508 -4.48583,41.1614 -12.4134,59.478 -8.2441,19.0488 -20.1744,36.0815 -34.8319,50.1544l-0.283465 0.257481c-14.6303,14.0102 -32.139,25.3181 -51.6355,33.1016 -18.6543,7.44686 -39.0957,11.589 -60.5162,11.6799l-0.125197 0c-21.5941,0.0248032 -42.0709,-4.0063 -60.6437,-11.3374 -19.5815,-7.72914 -37.2,-19.0748 -51.9508,-33.1736l-0.125197 -0.124016c-14.7744,-14.1425 -26.7248,-31.167 -34.9677,-50.2181 -7.94883,-18.3744 -12.3331,-38.5063 -12.3473,-59.615 -0.0377953,-12.6201 1.47284,-24.6567 4.3441,-36.0425 3.05433,-12.1134 7.5378,-23.5795 13.2413,-34.3099l0.750001 -1.12441 7.54961 -12.8504 0.125197 -0.250394 91.1587 -151.491 0.00590552 0.00354331c1.37835,-2.44252 2.83701,-4.54843 4.29685,-6.35788 1.62874,-2.02441 3.29173,-3.77953 4.84134,-5.26536l0.0531496 0.0555119c4.41615,-4.37244 9.56457,-7.81418 15.0036,-10.0913z"/>
  <path class="fil1" d="M383.763 1187.38c5.00906,-2.1437 10.6028,-3.30473 16.3606,-3.26339 5.82166,-0.0401575 11.2984,1.13504 16.2189,3.24922 4.7504,2.04095 9.16654,5.07284 12.9732,8.77324l0.0011811 -0.0011811c1.53071,1.48465 2.91378,2.95866 4.11496,4.48937 1.12205,1.42795 2.26536,3.12992 3.46654,5.22993l0.0354331 -0.0212599 56.954 96.2824 0.125197 0.249213 4.90512 8.45788 0.750001 1.37599c3.89174,7.53662 6.96378,15.5953 9.06969,24.0638 1.98662,7.98071 3.07677,16.4894 3.13937,25.4339l0 0.125197c-0.0425197,14.9681 -3.10984,29.2311 -8.60198,42.1843 -5.75079,13.5626 -14.0646,25.6819 -24.2705,35.6835l-1.24961 1.24961 -0.0791339 0.0696851 -0.0212599 -0.0236221c-10.0878,9.58229 -21.9154,17.289 -34.9181,22.5874 -12.9036,5.25827 -27.2044,8.18386 -42.3496,8.25001l-0.125197 0c-15.0862,0.0177165 -29.413,-2.86772 -42.4288,-8.11182 -13.6925,-5.51575 -25.9996,-13.6016 -36.2894,-23.6398 -10.3595,-10.1209 -18.7264,-22.2756 -24.4784,-35.8488 -5.51103,-13.0016 -8.55119,-27.2776 -8.56182,-42.2705 -0.0248032,-8.94213 1.0311,-17.5028 3.0378,-25.6264 2.14725,-8.69174 5.25,-16.8236 9.16418,-24.3402l0.750001 -1.12559 4.70552 -8.1756 0.125197 -0.37441 56.8182 -96.3804 0.0555119 0.0330709c1.10787,-1.93701 2.32323,-3.69331 3.56929,-5.27126 1.85788,-2.34685 3.10158,-3.75473 3.93071,-4.56496l0.0472441 0.0484252c3.73229,-3.72638 8.20985,-6.72993 13.0559,-8.79686z"/>
  <path class="fil1" d="M991.763 1187.38c5.00906,-2.1437 10.6028,-3.30473 16.3606,-3.26339 5.82166,-0.0401575 11.2984,1.13504 16.2189,3.24922 4.74922,2.03977 9.16654,5.07284 12.9732,8.77324l0.0011811 -0.0011811c1.53071,1.48465 2.9126,2.95748 4.11496,4.48937 1.12205,1.42795 2.26299,3.12874 3.46536,5.22993l0.0366142 -0.0212599 56.954 96.2824 0.125197 0.249213 4.90512 8.45788 0.750001 1.37599c3.89174,7.53662 6.96378,15.5953 9.06969,24.0638 1.98662,7.98071 3.07677,16.4894 3.13937,25.4339l0 0.125197c-0.0425197,14.9681 -3.10984,29.2311 -8.60198,42.1843 -5.75079,13.5626 -14.0634,25.6819 -24.2705,35.6835l-1.24961 1.24961 -0.0791339 0.0696851 -0.0212599 -0.0236221c-10.0878,9.58229 -21.9154,17.289 -34.9181,22.5874 -12.9036,5.25827 -27.2032,8.18386 -42.3496,8.25001l-0.125197 0c-15.0862,0.0177165 -29.413,-2.86772 -42.4288,-8.11182 -13.6925,-5.51575 -25.9996,-13.6016 -36.2894,-23.6398 -10.3595,-10.1209 -18.7264,-22.2756 -24.4784,-35.8488 -5.51103,-13.0016 -8.55119,-27.2776 -8.56182,-42.2705 -0.0248032,-8.94213 1.0311,-17.5028 3.0378,-25.6264 2.14725,-8.69174 5.25,-16.8236 9.16418,-24.3402l0.750001 -1.12559 4.70552 -8.1756 0.125197 -0.37441 56.8182 -96.3804 0.0555119 0.0330709c1.10787,-1.93701 2.32323,-3.69331 3.56929,-5.27126 1.85788,-2.34685 3.10158,-3.75473 3.93071,-4.56496l0.0472441 0.0484252c3.73229,-3.72638 8.20985,-6.72993 13.0559,-8.79686z"/>
  <path class="fil1" d="M1631.38 1187.38c5.01024,-2.14488 10.6051,-3.30473 16.3606,-3.26339 5.82402,-0.0401575 11.2996,1.13622 16.2189,3.24922 4.75276,2.04095 9.16772,5.07402 12.9732,8.77324l0.0011811 -0.0011811c1.53071,1.48583 2.91496,2.95984 4.11496,4.48937 1.25079,1.59331 2.46732,3.38386 3.66142,5.47678l56.7945 96.0142 0.125197 0.249213 4.90512 8.45788 0.750001 1.37599c3.89174,7.53662 6.96378,15.5953 9.06969,24.0638 1.98662,7.98071 3.07677,16.4894 3.13937,25.4339l0 0.125197c-0.0425197,14.9681 -3.10984,29.2311 -8.60198,42.1843 -5.75079,13.5626 -14.0634,25.6819 -24.2705,35.6835l-1.24961 1.24961 -0.0791339 0.0696851 -0.0212599 -0.0236221c-10.0878,9.58229 -21.9154,17.289 -34.9181,22.5874 -12.9036,5.25827 -27.2032,8.18386 -42.3496,8.25001l-0.125197 0c-15.0851,0.0177165 -29.413,-2.86772 -42.4288,-8.11182 -13.6925,-5.51575 -25.9996,-13.6016 -36.2894,-23.6398 -10.3595,-10.1209 -18.7264,-22.2756 -24.4784,-35.8488 -5.51103,-13.0016 -8.55119,-27.2776 -8.56182,-42.2705 -0.0248032,-8.94213 1.0311,-17.5028 3.0378,-25.6264 2.14725,-8.69174 5.25,-16.8236 9.16418,-24.3402l0.750001 -1.12559 4.70552 -8.1756 0.125197 -0.37441 56.8182 -96.3804 0.0141732 0.00826772c1.06063,-1.82008 2.29488,-3.57992 3.61063,-5.24646 1.15158,-1.45394 2.16969,-2.61851 3.0626,-3.55748l-0.00708662 -0.00708662c3.90827,-4.16929 8.72835,-7.50945 13.9784,-9.74883z"/>
 </g>
</svg>
